<svg xmlns="http://www.w3.org/2000/svg" viewBox="0 0 534.81 275.04">
	<defs>
		<style>.cls-1{fill:#333;}</style>
	</defs>
	<g id="Layer_2" data-name="Layer 2">
		<g id="Layer_1-2" data-name="Layer 1">
			<path class="cls-1" d="M53.11,123.81C19.71,123.81,0,100.84,0,61.9S19.71,0,53.11,0C80.47,0,98.88,17.1,103,45.61H86.66C82.92,25.74,70.54,14,53.11,14,30.79,14,17.43,31.77,17.43,61.9s13.36,47.9,35.68,47.9c17.59,0,29.81-12.06,33.55-32.42H103C98.88,106.38,80.31,123.81,53.11,123.81Z"/>
			<path class="cls-1" d="M114.7,61.9C114.7,23,134.57,0,168.3,0c33.55,0,53.43,23,53.43,61.9s-19.88,61.91-53.43,61.91C134.57,123.81,114.7,100.84,114.7,61.9Zm89.43,0C204.13,31.77,190.78,14,168.3,14c-22.81,0-36.17,17.76-36.17,47.89s13.36,47.9,36.17,47.9C190.78,109.8,204.13,92,204.13,61.9Z"/>
			<path class="cls-1" d="M331.51,122.18H312.28l-28.67-50.5H257.55v50.5H240.44V1.63h44.31c26.88,0,42.85,12.54,42.85,33.56,0,22.8-15.64,36.16-42,36.16v.33c9.94,0,19.71,5.7,25.57,16ZM285.89,58.65c15.32,0,24.11-8.15,24.11-22.16,0-13.36-9-21.34-24.11-21.34H257.55v43.5Z"/>
			<path class="cls-1" d="M422.21,91.88H367l-9.45,30.3H340.11L380.18,1.63h30.14l39.75,120.55H431.66ZM418,78.19,394.84,3.26h-.32l-23.3,74.93Z"/>
			<path class="cls-1" d="M534.81,108.17v14H463.13V1.63h17.11V108.17Z"/>
			<path class="cls-1" d="M115.17,153.22,83.49,274.67H33.11L1.43,153.22h30.2L59,272.37h.33L86.94,153.22Z"/>
			<path class="cls-1" d="M125.25,153.22H153.8V274.67H125.25Z"/>
			<path class="cls-1" d="M358.18,246.44H310.91l-7.38,28.23H275.14l35.28-121.45h50.06l35,121.45h-30Zm-5.58-21.66-17.89-69.26h-.33l-17.89,69.26Z"/>
			<path class="cls-1" d="M236.73,232.36l0,0c-11.95,0-30,5.63-30.09,22.3V275h31.27V232.39l0,0A3.17,3.17,0,0,1,236.73,232.36Z"/>
			<path class="cls-1" d="M207.89,195.54l0,0c11.95,0,30-5.63,30.08-22.29V152.86H206.67V195.5l0,0A3.18,3.18,0,0,1,207.89,195.54Z"/>
			<path class="cls-1" d="M282.86,221.92s-16.39,10.44-37.54,10.44c-19.08,0-33.42-6.66-51.92-6.66-22.2,0-31.64,6.66-31.64,6.66V201.09s8.75-6.66,31.64-6.66c17.11,0,32.84,7,51.33,7,19.2,0,38.13-10.82,38.13-10.82Z"/>
		</g>
	</g>
</svg>